<svg xmlns="http://www.w3.org/2000/svg" aria-hidden="true" style="position:absolute;width:0;height:0;overflow:hidden">
  <defs>
    <symbol id="icon-caret" viewBox="0 0 32 32">
      <path fill="#fff" d="m15.707 21.707 10-10a.991.991 0 0 0 .293-.708 1.01 1.01 0 0 0-.293-.708.991.991 0 0 0-.708-.293 1.01 1.01 0 0 0-.708.293l-9.293 9.294-9.292-9.294a1 1 0 1 0-1.414 1.414l10 10a.991.991 0 0 0 .708.293 1.006 1.006 0 0 0 .708-.293z" style="fill:var(--color1, #fff)"/>
    </symbol>
    <symbol id="icon-close" viewBox="0 0 32 32">
      <path fill="#fff" d="m8.532 25.333-1.867-1.867 7.467-7.467-7.467-7.467 1.867-1.867 7.467 7.467 7.467-7.467 1.867 1.867-7.467 7.467 7.467 7.467-1.867 1.867-7.467-7.467-7.467 7.467z" style="fill:var(--color1, #fff)"/>
    </symbol>
    <symbol id="icon-menu" viewBox="0 0 32 32">
      <path fill="#fff" d="M4 24v-2.667h24V24H4zm0-6.667v-2.667h24v2.667H4zm0-6.666V8h24v2.667H4z" style="fill:var(--color1, #fff)"/>
    </symbol>
    <symbol id="icon-playstore" viewBox="0 0 29 32">
      <path fill="#ea4335" d="M13.396 15.282.123 29.341l.003.009A3.582 3.582 0 0 0 3.588 32c.663 0 1.285-.179 1.819-.493l.042-.025 14.939-8.603-6.992-7.597z" style="fill:var(--color2, #ea4335)"/>
      <path fill="#fbbc04" d="m26.823 12.888-.012-.009-6.45-3.731-7.267 6.454 7.293 7.276 6.415-3.694a3.575 3.575 0 0 0 .022-6.296z" style="fill:var(--color3, #fbbc04)"/>
      <path fill="#4285f4" d="M.122 2.658C.042 2.952 0 3.26 0 3.579v24.843c0 .319.042.627.123.919l13.728-13.7L.122 2.657z" style="fill:var(--color4, #4285f4)"/>
      <path fill="#34a853" d="m13.494 16 6.869-6.854L5.441.512A3.59 3.59 0 0 0 3.589.001 3.586 3.586 0 0 0 .125 2.655l-.001.004 13.371 13.342z" style="fill:var(--color5, #34a853)"/>
    </symbol>
  </defs>
</svg>
